<svg width="47" height="51" viewBox="0 0 47 51" fill="none" xmlns="http://www.w3.org/2000/svg">
<path d="M8.68508 29.028C8.68508 29.5652 8.79187 30.3275 8.9005 31.1029C8.9257 31.2828 8.951 31.4634 8.97508 31.642C9.11132 32.6524 9.23076 33.7226 9.20428 34.7032C9.17726 35.7037 8.99983 36.4669 8.66442 36.9586C8.3792 37.3767 7.90403 37.713 6.91791 37.713C6.92377 37.713 6.92678 37.7131 6.92682 37.7128C6.92708 37.711 6.82835 37.6953 6.60595 37.5679C6.36943 37.4323 6.07588 37.2186 5.738 36.9271C5.06445 36.346 4.29719 35.5279 3.56992 34.6227C2.84367 33.7187 2.18047 32.7567 1.70468 31.8989C1.20032 30.9896 1 30.3601 1 30.0657C1 29.1039 1.31059 27.9784 1.8113 27.1123C2.34578 26.1878 2.89265 25.8772 3.22836 25.8772C3.8938 25.8772 5.34072 26.2659 6.65027 26.9729C7.28981 27.3182 7.83033 27.7051 8.19775 28.0966C8.57081 28.4942 8.68508 28.8069 8.68508 29.028Z" stroke="#F7F7FF" stroke-width="2"/>
<path d="M46.2758 22.3849C45.9633 41.3118 42.0154 50.1558 25.0666 49.8759C10.5399 49.6361 4.46169 40.6265 4.75582 22.813C4.76742 22.1106 4.31422 20.9653 25.0666 21C45.819 21.0347 46.2833 21.9298 46.2758 22.3849Z" fill="#F7F7FF"/>
<path d="M31.7334 1.57585C31.8329 1.61849 31.7944 1.76774 31.6867 1.75697L27.2135 1.30965C26.5764 1.24594 25.9343 1.36411 25.3616 1.65046V1.65046C24.1662 2.24816 24.1016 3.93011 25.2476 4.61774L25.5184 4.78022C25.5942 4.82567 25.6731 4.86569 25.7545 4.89998L28.2094 5.93361C31.8995 7.48736 32.2394 12.584 28.7883 14.614L28.3417 14.8767C27.3519 15.459 26.2635 15.8544 25.1307 16.0432V16.0432C23.8624 16.2546 22.5642 16.2027 21.3169 15.8909L20.7837 15.7576L24.553 14.8152C25.2592 14.6387 25.9041 14.2736 26.4188 13.7589V13.7589C27.4611 12.7165 27.0625 10.9437 25.6742 10.4479L21.1519 8.83279C20.5141 8.605 19.949 8.21042 19.5154 7.69013V7.69013C18.1984 6.10978 18.3829 3.76733 19.9311 2.41268L20.0764 2.2856C21.3248 1.19317 22.883 0.517345 24.5337 0.352273L25.3519 0.270456C27.1259 0.0930516 28.916 0.368376 30.5547 1.07069L31.7334 1.57585Z" fill="#D9D9D9"/>
</svg>
