<svg width="16" height="16" viewBox="0 0 16 16" fill="none" xmlns="http://www.w3.org/2000/svg">
<path fill-rule="evenodd" clip-rule="evenodd" d="M16 5V2V0H14H11V2H14V5H16ZM9 2H4C2.89543 2 2 2.89543 2 4V12C2 13.1046 2.89543 14 4 14H12C13.1046 14 14 13.1046 14 12V7H16V12C16 14.2091 14.2091 16 12 16H4C1.79086 16 0 14.2091 0 12V4C0 1.79086 1.79086 0 4 0H9V2Z" fill="#348AA7"/>
<path d="M7.29289 7.29289C6.90237 7.68342 6.90237 8.31658 7.29289 8.70711C7.68342 9.09763 8.31658 9.09763 8.70711 8.70711L7.29289 7.29289ZM8.70711 8.70711L15.7071 1.70711L14.2929 0.292893L7.29289 7.29289L8.70711 8.70711Z" fill="#348AA7"/>
</svg>
