<svg height="339" viewBox="0 0 396 339" fill="none" xmlns="http://www.w3.org/2000/svg">
<g filter="url(#filter0_d_27_838)">
<path fill-rule="evenodd" clip-rule="evenodd" d="M373 10.0555C377.971 10.0555 382 6.02611 382 1.05555C382 0.762345 381.986 0.472419 381.959 0.186401H392V330.655H4V0.186401H13.0414C13.014 0.472419 13 0.762345 13 1.05555C13 6.02611 17.0294 10.0555 22 10.0555C26.9706 10.0555 31 6.02611 31 1.05555C31 0.762345 30.986 0.472419 30.9586 0.186401H40.0414C40.014 0.472419 40 0.762345 40 1.05555C40 6.02611 44.0294 10.0555 49 10.0555C53.9706 10.0555 58 6.02611 58 1.05555C58 0.762345 57.986 0.472419 57.9586 0.186401H67.0414C67.014 0.472419 67 0.762345 67 1.05555C67 6.02611 71.0294 10.0555 76 10.0555C80.9706 10.0555 85 6.02611 85 1.05555C85 0.762345 84.986 0.472419 84.9586 0.186401H94.0414C94.014 0.472419 94 0.762345 94 1.05555C94 6.02611 98.0294 10.0555 103 10.0555C107.971 10.0555 112 6.02611 112 1.05555C112 0.762345 111.986 0.472419 111.959 0.186401H121.041C121.014 0.472419 121 0.762345 121 1.05555C121 6.02611 125.029 10.0555 130 10.0555C134.971 10.0555 139 6.02611 139 1.05555C139 0.762345 138.986 0.472419 138.959 0.186401H148.041C148.014 0.472419 148 0.762345 148 1.05555C148 6.02611 152.029 10.0555 157 10.0555C161.971 10.0555 166 6.02611 166 1.05555C166 0.762345 165.986 0.472419 165.959 0.186401H175.041C175.014 0.472419 175 0.762345 175 1.05555C175 6.02611 179.029 10.0555 184 10.0555C188.971 10.0555 193 6.02611 193 1.05555C193 0.762345 192.986 0.472419 192.959 0.186401H202.041C202.014 0.472419 202 0.762345 202 1.05555C202 6.02611 206.029 10.0555 211 10.0555C215.971 10.0555 220 6.02611 220 1.05555C220 0.762345 219.986 0.472419 219.959 0.186401H229.041C229.014 0.472419 229 0.762345 229 1.05555C229 6.02611 233.029 10.0555 238 10.0555C242.971 10.0555 247 6.02611 247 1.05555C247 0.762345 246.986 0.472419 246.959 0.186401H256.041C256.014 0.472419 256 0.762345 256 1.05555C256 6.02611 260.029 10.0555 265 10.0555C269.971 10.0555 274 6.02611 274 1.05555C274 0.762345 273.986 0.472419 273.959 0.186401H283.041C283.014 0.472419 283 0.762345 283 1.05555C283 6.02611 287.029 10.0555 292 10.0555C296.971 10.0555 301 6.02611 301 1.05555C301 0.762345 300.986 0.472419 300.959 0.186401H310.041C310.014 0.472419 310 0.762345 310 1.05555C310 6.02611 314.029 10.0555 319 10.0555C323.971 10.0555 328 6.02611 328 1.05555C328 0.762345 327.986 0.472419 327.959 0.186401H337.041C337.014 0.472419 337 0.762345 337 1.05555C337 6.02611 341.029 10.0555 346 10.0555C350.971 10.0555 355 6.02611 355 1.05555C355 0.762345 354.986 0.472419 354.959 0.186401H364.041C364.014 0.472419 364 0.762345 364 1.05555C364 6.02611 368.029 10.0555 373 10.0555Z" fill="#F7F7FF"/>
</g>
<defs>
<filter id="filter0_d_27_838" x="0" y="0.186401" width="396" height="338.469" filterUnits="userSpaceOnUse" color-interpolation-filters="sRGB">
<feFlood flood-opacity="0" result="BackgroundImageFix"/>
<feColorMatrix in="SourceAlpha" type="matrix" values="0 0 0 0 0 0 0 0 0 0 0 0 0 0 0 0 0 0 127 0" result="hardAlpha"/>
<feOffset dy="4"/>
<feGaussianBlur stdDeviation="2"/>
<feComposite in2="hardAlpha" operator="out"/>
<feColorMatrix type="matrix" values="0 0 0 0 0 0 0 0 0 0 0 0 0 0 0 0 0 0 0.25 0"/>
<feBlend mode="normal" in2="BackgroundImageFix" result="effect1_dropShadow_27_838"/>
<feBlend mode="normal" in="SourceGraphic" in2="effect1_dropShadow_27_838" result="shape"/>
</filter>
</defs>
</svg>
